<?xml version="1.0" encoding="UTF-8"?><svg id="Layer_2" xmlns="http://www.w3.org/2000/svg" viewBox="0 0 379.26 70.98"><g id="Layer_1-2"><path d="m38.53,50.46c-2.74,1.01-5.52,1.51-8.33,1.51-3.54,0-6.72-.89-9.53-2.66-2.81-1.77-4.65-4.47-5.52-8.08h29.4c0-8.96-1.76-15.86-5.27-20.71s-8.64-7.28-15.4-7.28-12.59,2.51-17.1,7.53C2.26,25.78,0,31.97,0,39.33s2.16,13.04,6.48,17.45c4.31,4.42,9.91,6.63,16.8,6.63,6.09,0,11.05-1.43,14.9-4.27,3.84-2.84,6.23-7.2,7.17-13.09-1.8,1.94-4.08,3.41-6.82,4.41Zm-20.37-24.83c1.67-1.64,3.48-2.46,5.42-2.46,1.81,0,3.38.76,4.72,2.26,1.33,1.51,2,3.86,2,7.07h-15.15c.34-2.94,1.34-5.23,3.01-6.87Z" style="fill:#fff;"/><path d="m121.9,56.68c-.54-1.67-.8-3.84-.8-6.52v-19.66c0-11.5-5.32-17.26-15.95-17.26-3.42,0-6.63.55-9.64,1.66-3.01,1.1-5.28,2.42-6.82,3.96-2-3.74-5.65-5.62-10.93-5.62-2.41,0-5.05.54-7.93,1.61-2.88,1.07-5.18,2.41-6.92,4.01l-.2-6.12-22.47,8.53h1.7c3.81,0,5.72,3.18,5.72,9.53v19.76c0,2.75-.29,4.89-.85,6.42-.57,1.54-1.26,2.71-2.06,3.52-.8.8-1.71,1.27-2.71,1.4h26.19c-.81-.13-1.58-.6-2.31-1.4-.74-.81-1.36-2.06-1.86-3.77-.5-1.7-.75-3.86-.75-6.47v-16.65c0-2.54.68-4.62,2.06-6.22,1.37-1.61,3.22-2.41,5.56-2.41,3.68,0,5.52,2.94,5.52,8.83v16.35c0,3.55-.43,6.31-1.3,8.28-.87,1.97-2.04,3.13-3.51,3.46h25.48c-1.41-.27-2.58-1.39-3.51-3.36-.94-1.97-1.41-4.73-1.41-8.28v-16.65c0-5.75,2.44-8.63,7.33-8.63,4.01,0,6.02,2.94,6.02,8.83v16.35c0,3.61-.49,6.42-1.46,8.43-.97,2.01-2.15,3.11-3.56,3.31h25.98c-.87-.13-1.72-.62-2.55-1.45s-1.53-2.09-2.06-3.77Z" style="fill:#fff;"/><path d="m200.07,56.51c-.88-1.12-1.72-2.33-2.47-3.57-.22-.36-.44-.73-.65-1.09-.17.02-.34.02-.51.02-3.54,0-5.32-1.97-5.32-5.92v-20.77h1.69c.08-.4.17-.79.27-1.19.75-3.05,1.86-5.98,3.32-8.74h-5.28V0l-21.16,23.71v-8.46h-20.97c3.61.87,5.42,4.48,5.42,10.83v16.66c0,2.81-.71,5-2.11,6.57-1.41,1.57-3.21,2.36-5.42,2.36-3.95,0-5.92-2.95-5.92-8.83V15.25h-23.07c2.67.54,4.56,1.87,5.67,4.01,1.1,2.14,1.65,4.62,1.65,7.43v19.46c0,11.5,5.22,17.26,15.65,17.26,2.34,0,4.82-.52,7.43-1.56,2.6-1.04,4.78-2.42,6.52-4.16l.2,6.22,21.35-8.14c.57,1.54,1.47,2.93,2.68,4.17,2.3,2.38,5.7,3.57,10.18,3.57,5.44,0,9.53-1.77,12.25-5.3-.47-.55-.94-1.12-1.4-1.7Zm-24.3-1.13c-3.87,0-5.81-3.18-5.81-9.53v-20.67h5.61v26.09c0,1.46.22,2.84.65,4.11h-.45Z" style="fill:#fff;"/><path d="m284.55,39.63c-1.5,2.3-3.69,3.46-6.57,3.46-4.28,0-6.42-1.87-6.42-5.62v-11.44c0-3.21.65-5.7,1.96-7.47,1.3-1.77,3.02-2.66,5.16-2.66,2.55,0,4.54,1.29,5.97,3.86,1.44,2.58,2.16,6.24,2.16,10.99,0,3.61-.75,6.57-2.26,8.88Zm13.5-29.25c-3.61-4.14-8.13-6.22-13.55-6.22-2.54,0-5.05.52-7.52,1.56-2.48,1.03-4.48,2.49-6.02,4.36l-.2-6.42-10.92,4.26-3.94,1.54c1.28,1.59,2.42,3.3,3.43,5.11,3.13,5.61,4.79,12.01,4.79,18.49,0,8.34-2.76,16.49-7.81,23.1v3.28c0,3.41-.42,6.1-1.25,8.08-.84,1.97-1.96,3.12-3.36,3.46h25.58c-1.34-.4-2.34-1.05-3.01-1.96-.67-.9-1.24-2.09-1.7-3.56-.47-1.47-.71-3.48-.71-6.02v-7.32c1.94,1.13,4.45,1.7,7.53,1.7,7.22,0,13.04-2.42,17.45-7.27,4.42-4.85,6.63-11.22,6.63-19.11,0-7.23-1.81-12.91-5.42-17.06Z" style="fill:#fff;"/><path d="m310.18,45.78c-1.24-1.19-2.85-1.78-4.84-1.78s-3.6.59-4.81,1.78c-1.21,1.19-1.81,2.69-1.81,4.51s.6,3.34,1.81,4.55c1.21,1.21,2.82,1.82,4.81,1.82s3.6-.61,4.84-1.82c1.23-1.21,1.85-2.73,1.85-4.55s-.62-3.32-1.85-4.51Z" style="fill:#fff;"/><path d="m321.94,22.29c.66-1.04,1.61-1.56,2.84-1.56,1.33,0,2.44.61,3.34,1.81.9,1.21,1.35,2.73,1.35,4.58,0,1.37-.31,2.58-.93,3.62-.62,1.04-1.58,1.56-2.91,1.56s-2.44-.64-3.34-1.92c-.9-1.28-1.34-2.79-1.34-4.54,0-1.33.33-2.51.99-3.55Zm19.73,22.24c-1.79-1.39-4.33-2.16-7.59-2.3l-8.09-.29c-1.23,0-2.29-.1-3.16-.31-.87-.22-1.31-.49-1.31-.82,0-.57.69-1.28,2.06-2.13.61.1,1.13.15,1.56.15,4.68,0,8.43-1.11,11.25-3.31,2.81-2.2,4.22-5,4.22-8.41,0-1.8-.45-3.4-1.35-4.82h5.04v-7.6c-1.33.66-3.17,1-5.53,1-2.09,0-4.37-.25-6.85-.75-2.49-.5-4.51-.75-6.07-.75-4.78,0-8.67,1.2-11.67,3.59-3.01,2.39-4.52,5.52-4.52,9.4,0,2.27.69,4.31,2.06,6.11,1.37,1.79,3.1,3.12,5.19,3.97-1.99,1.23-3.58,2.52-4.76,3.87-.19.22-.37.43-.53.64,2.19,2.12,3.34,4.91,3.34,8.06s-1.16,5.96-3.35,8.11c-.5.49-1.05.93-1.62,1.31.62.62,1.47,1.15,2.55,1.61,2.53,1.06,6.09,1.59,10.68,1.59,6.63,0,11.8-1.16,15.55-3.51,1.02-.64,1.91-1.33,2.66-2.08,1.69-1.67,2.66-3.58,2.88-5.73.04-.34.06-.67.06-1.02,0-2.32-.9-4.18-2.7-5.58Zm-9.36,10.4c-1.47.62-3.82.92-7.03.92-4.4,0-6.6-.85-6.6-2.55,0-.9.85-1.89,2.56-2.98,2.78.04,5.7.16,8.73.35,3.02.2,4.54.95,4.54,2.28,0,.7-.74,1.37-2.2,1.98Z" style="fill:#fff;"/><path d="m356.83,22.29c.66-1.04,1.61-1.56,2.84-1.56,1.33,0,2.44.61,3.34,1.81.9,1.21,1.34,2.73,1.34,4.58,0,1.37-.3,2.58-.92,3.62-.62,1.04-1.58,1.56-2.91,1.56s-2.44-.64-3.34-1.92c-.9-1.28-1.34-2.79-1.34-4.54,0-1.33.33-2.51.99-3.55Zm19.73,22.24c-1.79-1.39-4.33-2.16-7.59-2.3l-8.09-.29c-1.23,0-2.29-.1-3.16-.31-.87-.22-1.31-.49-1.31-.82,0-.57.68-1.28,2.06-2.13.61.1,1.13.15,1.55.15,4.69,0,8.44-1.11,11.26-3.31,2.81-2.2,4.22-5,4.22-8.41,0-1.8-.45-3.4-1.35-4.82h5.04v-7.6c-1.33.66-3.17,1-5.53,1-2.09,0-4.37-.25-6.85-.75-2.49-.5-4.52-.75-6.07-.75-4.78,0-8.67,1.2-11.68,3.59-1.01.81-1.85,1.7-2.52,2.67-.4.58-.74,1.19-1.02,1.84-.65,1.47-.97,3.1-.97,4.89,0,2.27.69,4.31,2.06,6.11,1.37,1.79,3.1,3.12,5.19,3.97-1.99,1.23-3.58,2.52-4.76,3.87-1.19,1.35-1.77,2.54-1.77,3.58,0,1.99,1.51,3.46,4.54,4.4-1.25.58-2.34,1.25-3.26,2.02-.44.37-.84.76-1.21,1.18-1.14,1.27-1.71,2.62-1.71,4.04,0,.17,0,.34.04.51.2,1.69,1.46,3.02,3.76,4,2.53,1.06,6.09,1.59,10.68,1.59,6.62,0,11.8-1.16,15.55-3.51,3.73-2.34,5.6-5.29,5.6-8.83,0-2.32-.9-4.18-2.7-5.58Zm-9.36,10.4c-1.47.62-3.82.92-7.03.92-4.4,0-6.6-.85-6.6-2.55,0-.9.85-1.89,2.56-2.98,2.78.04,5.7.16,8.73.35,3.02.2,4.54.95,4.54,2.28,0,.7-.74,1.37-2.2,1.98Z" style="fill:#fff;"/><path d="m258.1,19.24c-.35-.76-.73-1.51-1.14-2.24-.89-1.6-1.91-3.12-3.04-4.54-.3-.37-.6-.74-.92-1.09-6.06-6.97-14.99-11.37-24.95-11.37-11.7,0-21.98,6.08-27.86,15.25-1.93,3.01-3.38,6.36-4.25,9.93-.62,2.53-.95,5.16-.95,7.88,0,6.34,1.78,12.25,4.88,17.28.65,1.07,1.37,2.11,2.14,3.09,6.05,7.73,15.47,12.69,26.04,12.69s19.32-4.61,25.38-11.87c1.98-2.36,3.63-5.01,4.88-7.86,1.81-4.08,2.81-8.59,2.81-13.33s-1.08-9.61-3.02-13.82Zm-18.53,14.82c-2.34.05-4.54,1.11-6.02,2.92-2.07,2.54-4.6,6.47-5.56,11.34-1.59,8.13-5.16,7.07-5.71,6.86-.02-.01-.05-.02-.07-.03-1.19-.37-3.3-1.93-1.9-8.42,1.05-4.86.27-9.47-.64-12.62-.64-2.24-2.26-4.08-4.38-5.04-2.62-1.19-5.28-3.61.55-7.85,8.07-5.87,13.16-9.66,15.38-10.28.16-.04.29-.07.42-.08.13.06.26.16.41.27,1.8,1.47,4.98,6.95,10.09,15.5,3.69,6.19.3,7.37-2.57,7.43Z" style="fill:#fff;"/></g></svg>