<?xml version="1.0" encoding="UTF-8"?><svg id="Layer_2" xmlns="http://www.w3.org/2000/svg" viewBox="0 0 534.48 113.16"><g id="Layer_1-2"><polygon points="48.88 0 97.75 27.93 97.75 84.43 94.09 82.3 93.48 29.76 48.88 4.51 29.94 15.1 29.94 11.04 48.88 0" style="fill:#fff;"/><polygon points="25.66 13.26 25.66 17.68 3.67 30.37 3.67 82.82 48.88 108.81 90.92 84.43 94.09 87.19 48.88 113.16 0 84.75 0 28.56 25.66 13.26" style="fill:#fff;"/><polygon points="26.27 21.82 26.27 70.45 48.88 83.19 68.43 71.92 86.76 82.3 48.88 105.06 6.72 80.47 6.72 32.55 26.27 21.82" style="fill:#fff;"/><polygon points="29.94 19.62 29.94 67.96 48.27 79.25 48.88 56.96 90.42 80.47 90.42 58.89 48.88 35.09 48.88 30.37 90.42 54.06 90.42 32.55 48.88 8.38 29.94 19.62" style="fill:#fff;"/><text transform="translate(122 80.13)" style="fill:#fff; font-family:Inter-Black, Inter; font-size:48.71px; font-weight:800;"><tspan x="0" y="0">LEAKFORUMS.IO</tspan></text></g></svg>