<?xml version="1.0" encoding="UTF-8"?><svg id="Layer_2" xmlns="http://www.w3.org/2000/svg" viewBox="0 0 338.69 52.53"><g id="Layer_1-2"><path d="m14.51,52.23c-6.29-1.01-12.58-5.73-13.87-10.45-.95-3.48-.79-26.4.22-29.77C2.71,5.66,7.99,1.73,16.02.55,20.24-.01,61.24-.24,61.24.33c0,.17-1.63,2.7-3.65,5.62l-3.71,5.28h-19.66c-21.51,0-22.19.11-23.48,3.26-.39.9-.62,2.75-.51,4.1l.17,2.47,17.86.17c9.77.06,17.81.34,17.81.56,0,.28-1.57,2.58-3.54,5.22l-3.48,4.72-13.59.17-13.54.11-.39,1.69c-.51,2.42.22,6.12,1.46,7.36.95.95,2.02,1.07,12.92,1.07,6.68,0,12.25-.22,12.86-.56.56-.28,6.91-8.82,14.16-18.93C67.08,2.8,68.04,1.79,73.82.49c1.85-.39,6.97-.56,14.38-.39,10.5.17,11.74.34,14.32,1.46,1.57.73,3.65,2.08,4.66,3.09,4.49,4.27,5.39,8.76,5.06,25.56-.17,11.74-.22,12.3-1.57,14.72-1.57,2.75-5.56,5.79-8.88,6.74-3.03.84-48.98.79-48.98-.06,0-.39,1.4-2.64,3.2-5.06l3.15-4.44h39.26l1.52-1.57c1.52-1.46,1.57-1.8,1.91-9.49.39-8.09.06-15.45-.79-17.08-1.12-2.25-3.88-2.75-14.77-2.75h-10.45l-1.69,1.57c-.95.84-7.25,9.1-13.99,18.37-12.64,17.41-14.55,19.49-18.93,20.56-3.03.73-22.86,1.12-26.74.51h0Z" style="fill:#fff;"/><path d="m134.08,44.19V6.65h25.3v6.54h-17.36v8.95h16.06v6.54h-16.06v8.96h17.43v6.54h-25.37Z" style="fill:#fff;"/><path d="m161.69,44.19v-28.16h7.44v4.97h.33c.59-1.65,1.56-2.95,2.93-3.9,1.37-.95,3.01-1.43,4.91-1.43s3.58.48,4.93,1.44,2.26,2.26,2.71,3.9h.29c.57-1.61,1.62-2.91,3.13-3.88,1.51-.97,3.3-1.46,5.36-1.46,2.63,0,4.76.83,6.41,2.5,1.64,1.67,2.47,4.03,2.47,7.09v18.94h-7.79v-17.4c0-1.56-.42-2.74-1.25-3.52s-1.87-1.17-3.12-1.17c-1.42,0-2.52.45-3.32,1.35-.79.9-1.19,2.08-1.19,3.55v17.2h-7.57v-17.56c0-1.38-.39-2.48-1.18-3.3-.79-.82-1.82-1.23-3.11-1.23-.87,0-1.65.22-2.34.65-.69.43-1.24,1.04-1.64,1.81-.4.78-.6,1.68-.6,2.72v16.9h-7.81Z" style="fill:#fff;"/><path d="m222.95,32.2v-16.17h7.81v28.16h-7.5v-5.11h-.29c-.64,1.65-1.69,2.98-3.16,3.98s-3.27,1.5-5.38,1.5c-1.88,0-3.54-.43-4.97-1.28-1.43-.85-2.55-2.07-3.35-3.65-.8-1.58-1.21-3.46-1.22-5.67v-17.93h7.81v16.54c.01,1.66.46,2.98,1.34,3.94.88.97,2.06,1.45,3.54,1.45.94,0,1.82-.22,2.64-.65.82-.43,1.48-1.08,1.99-1.93s.75-1.91.74-3.17Z" style="fill:#fff;"/><path d="m243.5,44.65c-2.14,0-4.07-.55-5.8-1.66-1.73-1.11-3.1-2.74-4.11-4.89-1.01-2.16-1.51-4.81-1.51-7.95s.52-5.91,1.56-8.06c1.04-2.15,2.42-3.75,4.15-4.82,1.73-1.07,3.63-1.6,5.69-1.6,1.58,0,2.89.27,3.95.8s1.91,1.19,2.57,1.98c.65.79,1.15,1.56,1.49,2.32h.24V6.65h7.79v37.54h-7.7v-4.51h-.33c-.37.78-.88,1.56-1.55,2.32-.67.76-1.53,1.4-2.58,1.9-1.06.5-2.34.75-3.86.75Zm2.47-6.21c1.26,0,2.33-.35,3.2-1.04.87-.69,1.55-1.66,2.02-2.91.47-1.25.71-2.71.71-4.38s-.23-3.13-.7-4.36c-.46-1.23-1.14-2.19-2.02-2.86-.88-.67-1.95-1.01-3.21-1.01s-2.36.35-3.24,1.04c-.88.7-1.55,1.66-2,2.9-.45,1.23-.68,2.66-.68,4.29s.23,3.08.69,4.34c.46,1.25,1.12,2.23,2,2.93.87.7,1.95,1.05,3.24,1.05Z" style="fill:#fff;"/><path d="m274.88,44.74c-2.9,0-5.39-.59-7.47-1.77s-3.69-2.85-4.81-5.02c-1.12-2.17-1.69-4.74-1.69-7.71s.56-5.44,1.69-7.63c1.12-2.19,2.71-3.89,4.76-5.11,2.05-1.22,4.45-1.83,7.21-1.83,1.86,0,3.59.3,5.2.89s3.01,1.48,4.22,2.67c1.2,1.19,2.14,2.67,2.81,4.46.67,1.79,1.01,3.88,1.01,6.28v2.14h-23.78v-4.84h16.43c0-1.12-.24-2.12-.73-2.99s-1.16-1.55-2.03-2.04c-.86-.5-1.86-.74-3-.74s-2.23.27-3.14.82-1.62,1.27-2.14,2.18c-.51.91-.78,1.92-.79,3.03v4.6c0,1.39.26,2.6.78,3.61.52,1.01,1.26,1.8,2.21,2.35.95.55,2.08.83,3.39.83.87,0,1.66-.12,2.38-.37.72-.24,1.34-.61,1.85-1.1s.9-1.09,1.17-1.8l7.22.48c-.37,1.74-1.12,3.25-2.25,4.54-1.13,1.29-2.58,2.29-4.36,3.01s-3.83,1.07-6.15,1.07Z" style="fill:#fff;"/><path d="m314.49,16.03l-9.84,28.16h-8.8l-9.84-28.16h8.25l5.85,20.15h.29l5.83-20.15h8.27Z" style="fill:#fff;"/><path d="m338.04,24.06l-7.15.44c-.12-.61-.38-1.16-.79-1.66-.4-.49-.93-.89-1.59-1.19-.65-.3-1.43-.45-2.34-.45-1.21,0-2.23.25-3.06.76-.83.51-1.25,1.18-1.25,2.03,0,.67.27,1.24.81,1.71.54.46,1.46.84,2.77,1.12l5.1,1.03c2.74.56,4.78,1.47,6.12,2.71,1.34,1.25,2.02,2.88,2.02,4.91,0,1.85-.54,3.46-1.62,4.86-1.08,1.39-2.56,2.48-4.44,3.25-1.88.78-4.04,1.16-6.48,1.16-3.73,0-6.69-.78-8.9-2.34-2.21-1.56-3.5-3.68-3.88-6.37l7.68-.4c.23,1.14.79,2,1.69,2.59.89.59,2.04.89,3.43.89s2.47-.27,3.31-.8c.84-.53,1.26-1.22,1.27-2.06-.01-.71-.31-1.29-.9-1.75-.59-.46-1.49-.81-2.71-1.05l-4.88-.97c-2.75-.55-4.79-1.5-6.13-2.86s-2.01-3.09-2.01-5.19c0-1.81.49-3.37,1.48-4.67.98-1.31,2.37-2.32,4.16-3.02,1.79-.71,3.89-1.06,6.3-1.06,3.56,0,6.36.75,8.41,2.25,2.05,1.5,3.24,3.55,3.58,6.14Z" style="fill:#fff;"/></g></svg>