<?xml version="1.0" encoding="UTF-8"?><svg id="Layer_2" xmlns="http://www.w3.org/2000/svg" viewBox="0 0 143.98 44"><g id="Layer_1-2"><path d="m52.83,15.63h1.85l3.66,12.16,3.69-12.16h1.75l3.8,12.16,3.56-12.16h1.85l-4.49,14.47h-1.86l-3.83-12.09-3.58,12.09h-1.86l-4.55-14.47Z" style="fill:#fff;"/><path d="m83.15,15.63h2.06l3.71,5.98,3.8-5.98h1.95l-4.97,7.62v6.86h-1.74v-6.86l-4.81-7.62Z" style="fill:#fff;"/><path d="m106.58,15.63h2.21l7.94,12.11v-12.11h1.75v14.47h-2.21l-7.94-12.13v12.13h-1.74v-14.47Z" style="fill:#fff;"/><path d="m133.87,17.16v11.42h2.12c.31,0,.56,0,.76-.01.21,0,.48-.03.82-.06.35-.03.65-.09.89-.15.25-.07.54-.17.85-.3.32-.13.61-.29.85-.47.25-.18.49-.42.74-.7.25-.29.46-.61.65-.97.45-.86.68-1.91.68-3.15,0-.86-.13-1.63-.38-2.31-.25-.69-.58-1.25-1-1.68-.41-.43-.85-.78-1.32-1.03-.47-.25-.95-.42-1.47-.51-.3-.05-.76-.08-1.36-.08h-2.83Zm2.77-1.53c.94,0,1.8.1,2.57.29.77.18,1.42.44,1.94.78.53.34.98.72,1.35,1.15.38.43.67.91.87,1.44.21.52.37,1.04.46,1.55.1.51.14,1.04.14,1.59,0,.63-.05,1.24-.14,1.82-.1.58-.26,1.18-.5,1.78-.23.6-.53,1.15-.9,1.63-.36.48-.83.91-1.42,1.29-.58.38-1.24.66-1.98.85-.38.1-.81.17-1.28.21-.47.05-.86.07-1.17.08-.31,0-.74.01-1.3.01h-3.16v-14.47h4.51Z" style="fill:#fff;"/><path d="m41.79,30.94c1.21-2.73,1.88-5.75,1.88-8.94C43.66,9.85,33.89,0,21.83,0S0,9.85,0,22s9.77,22,21.83,22c.56,0,1.11-.02,1.66-.06-1.18-.12-2.36-.33-3.54-.65-8.21-2.22-14.07-8.87-15.72-16.71,2.56,5.94,7.69,10.68,14.37,12.49,4.8,1.3,9.66.87,13.93-.89-7.16.35-14.33-2.86-18.82-9.16-4.95-6.96-5.29-15.85-1.62-22.97-1.76,6.23-.78,13.17,3.25,18.84,5.75,8.09,15.93,11.08,24.82,8.01.58-.62,1.12-1.27,1.62-1.95Z" style="fill:#fff; fill-rule:evenodd;"/></g></svg>