<?xml version="1.0" encoding="UTF-8"?><svg id="Layer_2" xmlns="http://www.w3.org/2000/svg" viewBox="0 0 135.04 285.22"><g id="Layer_1-2"><path d="m67.33,0c6.12,7.37,11.4,13.71,16.27,19.56-9.44,12.43-19.2,23.88-27.35,36.39-9.98,15.32-18.56,31.55-27.85,47.33-1.41,2.4-1.13,4.03.52,6.22,4.3,5.71,8.28,11.66,12.26,17.35,8.56-14.91,16.77-30.07,25.81-44.71,9-14.58,19.69-27.97,32.66-41.24,8.57,15.72,16.94,30.63,24.84,45.78,3.92,7.51,7.13,15.42,10.28,23.3.61,1.51.12,4.31-.96,5.52-35.3,39.44-53.64,86.47-62.04,137.97-.86,5.26-1.48,10.56-2.06,15.86-.58,5.26-.99,10.55-2.34,15.89-.45-4.61-.61-9.26-1.39-13.82-2.78-16.4-5.8-32.77-8.63-49.16-.32-1.89-.31-3.98.14-5.83,9.54-38.75,25.09-74.77,49.08-106.88,1.62-2.16,1.96-3.75.62-6.2-3.58-6.56-6.85-13.28-10.64-20.72-23.9,30.35-40.16,63.75-52.2,100.62-1.05-2.19-1.73-3.54-2.34-4.92-10.14-22.87-23.14-43.89-40.11-62.35-1.74-1.89-2.47-3.4-1.37-6.1C16.34,70.74,37.89,35.14,65.49,3.21c.64-.74,1-1.72,1.85-3.21Z" style="fill:#fff;"/></g></svg>